<svg width="66" height="69" viewBox="0 0 66 69" fill="none" xmlns="http://www.w3.org/2000/svg">
<path d="M33 1.06458C14.7742 1.06458 0 15.8387 0 34.0646C0 52.2904 14.7742 67.0646 33 67.0646C51.2258 67.0646 66 52.2904 66 34.0646C66 15.8387 51.2258 1.06458 33 1.06458ZM31.4911 33.0307C31.1065 33.672 30.4132 34.0646 29.6654 34.0646H29.6242C29.06 34.0646 28.5184 34.2895 28.1192 34.6886L27.3661 35.4418C26.9509 35.857 26.9509 36.5316 27.3661 36.9468L28.1192 37.6999C28.5184 38.0991 28.7433 38.6407 28.7433 39.2049V40.4517C28.7433 41.628 27.7905 42.5807 26.6142 42.5807H25.8012C24.9948 42.5807 24.2577 42.1256 23.8971 41.4031L20.8871 35.3846C20.5625 34.7352 19.6962 34.5942 19.1826 35.1078L16.5918 37.6972C16.1926 38.0964 15.651 38.3213 15.0869 38.3213H6.76101C6.53613 36.9321 6.3871 35.5176 6.3871 34.0646C6.3871 19.3902 18.3256 7.45167 33 7.45167C35.8622 7.45167 38.6153 7.91873 41.2008 8.75837L34.5263 13.8853C33.8463 14.3391 33.9102 15.357 34.6407 15.723L36.0818 16.4428C36.803 16.8034 37.2581 17.5406 37.2581 18.347V28.742C37.2581 29.3301 36.7817 29.8065 36.1936 29.8065H35.7864C35.3832 29.8065 35.0146 29.579 34.835 29.2184C34.6274 28.8032 34.0419 28.7806 33.8024 29.1784L31.4911 33.0307ZM54.2903 47.6944C54.2903 48.2586 54.0654 48.8001 53.6663 49.1993L52.3928 50.4728C51.9936 50.872 51.4521 51.0968 50.8879 51.0968H48.8706C48.3064 51.0968 47.7648 50.872 47.3656 50.4728L45.6345 48.7416C45.1995 48.3067 44.6594 47.9918 44.0666 47.8276C43.4739 47.6635 42.8487 47.6556 42.252 47.8048L39.4217 48.5127C39.2527 48.5553 39.0797 48.5766 38.9054 48.5766H37.5295C36.9653 48.5766 36.4238 48.3517 36.0246 47.9525L34.4398 46.3677C34.2403 46.1679 34.1283 45.897 34.1284 45.6146V44.2573C34.1284 43.8222 34.3932 43.431 34.7977 43.2687L40.0325 41.1742C40.2959 41.0691 40.5461 40.932 40.7763 40.7684L43.9313 38.5209C44.1115 38.3925 44.3274 38.3237 44.5487 38.324H46.1574C46.5872 38.324 46.9758 38.5821 47.1408 38.98L47.8527 40.6899C47.8931 40.7868 47.9613 40.8696 48.0486 40.9278C48.136 40.9861 48.2387 41.0172 48.3437 41.0172H48.8493C49.0862 41.0172 49.2951 40.8602 49.3603 40.634L49.9192 38.7085C49.9857 38.481 50.1933 38.3253 50.4301 38.3253H51.2365C51.5306 38.3253 51.7688 38.5635 51.7688 38.8576V40.5781C51.7688 40.8602 51.8805 41.1316 52.0801 41.3312L53.6649 42.916C54.0641 43.3152 54.289 43.8568 54.289 44.421V47.6944H54.2903Z" fill="#219D80"/>
</svg>
