<svg width="20" height="20" viewBox="0 0 20 20" fill="none" xmlns="http://www.w3.org/2000/svg">
<g clip-path="url(#clip0_4_346)">
<path d="M11.7301 10.0001C11.7301 10.9559 10.9552 11.7308 9.99932 11.7308C9.04349 11.7308 8.26855 10.9559 8.26855 10.0001C8.26855 9.04423 9.04349 8.26929 9.99932 8.26929C10.9552 8.26929 11.7301 9.04423 11.7301 10.0001Z" fill="#252A34"/>
<path d="M12.9224 4.76929H7.07625C5.80371 4.76929 4.76855 5.80444 4.76855 7.07698V12.9231C4.76855 14.1957 5.80371 15.2308 7.07625 15.2308H12.9224C14.1949 15.2308 15.2301 14.1957 15.2301 12.9231V7.07698C15.2301 5.80444 14.1949 4.76929 12.9224 4.76929ZM9.99932 12.8847C8.40873 12.8847 7.11471 11.5907 7.11471 10.0001C7.11471 8.40946 8.40873 7.11544 9.99932 7.11544C11.5899 7.11544 12.8839 8.40946 12.8839 10.0001C12.8839 11.5907 11.5899 12.8847 9.99932 12.8847ZM13.307 7.26929C12.9884 7.26929 12.7301 7.01102 12.7301 6.69236C12.7301 6.3737 12.9884 6.11544 13.307 6.11544C13.6257 6.11544 13.8839 6.3737 13.8839 6.69236C13.8839 7.01102 13.6257 7.26929 13.307 7.26929Z" fill="#252A34"/>
<path d="M14.6533 0.153809H5.34563C2.48265 0.153809 0.15332 2.48314 0.15332 5.34612V14.6538C0.15332 17.5168 2.48265 19.8461 5.34563 19.8461H14.6533C17.5163 19.8461 19.8456 17.5168 19.8456 14.6538V5.34612C19.8456 2.48314 17.5163 0.153809 14.6533 0.153809ZM16.3841 12.923C16.3841 14.8317 14.8312 16.3846 12.9226 16.3846H7.0764C5.16774 16.3846 3.61486 14.8317 3.61486 12.923V7.07689C3.61486 5.16823 5.16774 3.61535 7.0764 3.61535H12.9226C14.8312 3.61535 16.3841 5.16823 16.3841 7.07689V12.923Z" fill="#252A34"/>
</g>
<defs>
<clipPath id="clip0_4_346">
<rect width="19.6923" height="19.6923" fill="white" transform="translate(0.15332 0.153809)"/>
</clipPath>
</defs>
</svg>
