<svg width="141" height="33" viewBox="0 0 141 33" fill="none" xmlns="http://www.w3.org/2000/svg">
<path d="M31.15 5.34C32.51 5.34 33.62 5.53 34.48 5.91C35.34 6.29 36.11 6.75 36.79 7.29C37.03 7.47 37.23 7.56 37.39 7.56C37.77 7.56 38.02 6.96 38.14 5.76H38.83C38.79 6.54 38.76 7.49 38.74 8.61C38.72 9.71 38.71 11.18 38.71 13.02H38.02C37.88 11.82 37.66 10.78 37.36 9.9C37.08 9 36.55 8.23 35.77 7.59C35.29 7.13 34.69 6.77 33.97 6.51C33.27 6.25 32.56 6.12 31.84 6.12C30.74 6.12 29.8 6.41 29.02 6.99C28.24 7.55 27.6 8.32 27.1 9.3C26.6 10.28 26.23 11.39 25.99 12.63C25.75 13.85 25.63 15.12 25.63 16.44C25.63 20.04 26.12 22.67 27.1 24.33C28.1 25.99 29.53 26.82 31.39 26.82C31.87 26.82 32.29 26.76 32.65 26.64C33.01 26.52 33.3 26.38 33.52 26.22C33.8 26.02 33.99 25.81 34.09 25.59C34.19 25.35 34.24 25.04 34.24 24.66V21.72C34.24 20.8 34.16 20.12 34 19.68C33.86 19.22 33.57 18.91 33.13 18.75C32.69 18.59 32.05 18.5 31.21 18.48V17.88C31.63 17.9 32.13 17.92 32.71 17.94C33.31 17.94 33.93 17.95 34.57 17.97C35.21 17.97 35.8 17.97 36.34 17.97C37.18 17.97 37.95 17.96 38.65 17.94C39.35 17.92 39.92 17.9 40.36 17.88V18.48C39.98 18.5 39.69 18.57 39.49 18.69C39.31 18.81 39.18 19.05 39.1 19.41C39.04 19.77 39.01 20.32 39.01 21.06V27H38.41C38.39 26.66 38.31 26.29 38.17 25.89C38.05 25.49 37.84 25.29 37.54 25.29C37.4 25.29 37.21 25.33 36.97 25.41C36.75 25.47 36.4 25.64 35.92 25.92C35.18 26.34 34.4 26.7 33.58 27C32.76 27.28 31.9 27.42 31 27.42C28.68 27.42 26.72 26.99 25.12 26.13C23.52 25.27 22.31 24.04 21.49 22.44C20.69 20.82 20.29 18.88 20.29 16.62C20.29 14.34 20.75 12.36 21.67 10.68C22.61 9 23.89 7.69 25.51 6.75C27.15 5.81 29.03 5.34 31.15 5.34ZM45.6805 3.75C46.5205 3.75 47.1805 3.96 47.6605 4.38C48.1605 4.78 48.4105 5.34 48.4105 6.06C48.4105 6.78 48.1605 7.35 47.6605 7.77C47.1805 8.17 46.5205 8.37 45.6805 8.37C44.8405 8.37 44.1705 8.17 43.6705 7.77C43.1905 7.35 42.9505 6.78 42.9505 6.06C42.9505 5.34 43.1905 4.78 43.6705 4.38C44.1705 3.96 44.8405 3.75 45.6805 3.75ZM48.0205 11.16V24.21C48.0205 25.05 48.1605 25.62 48.4405 25.92C48.7405 26.22 49.2405 26.37 49.9405 26.37V27C49.5805 26.98 49.0205 26.96 48.2605 26.94C47.5005 26.9 46.7305 26.88 45.9505 26.88C45.1705 26.88 44.3805 26.9 43.5805 26.94C42.7805 26.96 42.1805 26.98 41.7805 27V26.37C42.4805 26.37 42.9705 26.22 43.2505 25.92C43.5505 25.62 43.7005 25.05 43.7005 24.21V14.76C43.7005 13.86 43.5605 13.2 43.2805 12.78C43.0205 12.34 42.5205 12.12 41.7805 12.12V11.49C42.4205 11.55 43.0405 11.58 43.6405 11.58C44.4805 11.58 45.2605 11.55 45.9805 11.49C46.7205 11.41 47.4005 11.3 48.0205 11.16ZM65.6163 11.49V12.09C65.2363 12.19 64.8763 12.43 64.5363 12.81C64.1963 13.17 63.8663 13.79 63.5463 14.67L59.1663 27.06C58.8463 27.04 58.5163 27.03 58.1763 27.03C57.8563 27.03 57.5363 27.04 57.2163 27.06L51.8763 13.8C51.5563 13.02 51.2363 12.55 50.9163 12.39C50.6163 12.21 50.3562 12.12 50.1362 12.12V11.49C50.7763 11.53 51.4363 11.57 52.1163 11.61C52.8163 11.63 53.5763 11.64 54.3963 11.64C55.0163 11.64 55.6663 11.63 56.3463 11.61C57.0463 11.57 57.6963 11.53 58.2963 11.49V12.12C57.8763 12.12 57.4963 12.14 57.1563 12.18C56.8363 12.22 56.6163 12.35 56.4963 12.57C56.3763 12.79 56.3963 13.18 56.5563 13.74L60.0663 23.04L59.7663 23.46L62.1363 16.89C62.5163 15.81 62.6763 14.93 62.6163 14.25C62.5563 13.55 62.3363 13.03 61.9563 12.69C61.5763 12.33 61.0663 12.13 60.4263 12.09V11.49C60.7263 11.51 61.0463 11.53 61.3863 11.55C61.7463 11.55 62.0863 11.56 62.4063 11.58C62.7463 11.58 63.0463 11.58 63.3063 11.58C63.7063 11.58 64.1263 11.57 64.5663 11.55C65.0063 11.53 65.3563 11.51 65.6163 11.49ZM73.6612 11.07C75.4212 11.07 76.8012 11.59 77.8012 12.63C78.8012 13.67 79.3012 15.37 79.3012 17.73H69.4312L69.3712 17.16H75.5212C75.5412 16.18 75.4812 15.28 75.3412 14.46C75.2012 13.62 74.9812 12.95 74.6812 12.45C74.3812 11.95 73.9812 11.7 73.4812 11.7C72.7812 11.7 72.1812 12.14 71.6812 13.02C71.2012 13.9 70.9112 15.36 70.8112 17.4L70.9012 17.58C70.8812 17.82 70.8612 18.07 70.8412 18.33C70.8412 18.59 70.8412 18.86 70.8412 19.14C70.8412 20.52 71.0312 21.64 71.4112 22.5C71.8112 23.36 72.3112 23.99 72.9112 24.39C73.5112 24.77 74.1212 24.96 74.7412 24.96C75.1612 24.96 75.5912 24.9 76.0312 24.78C76.4912 24.64 76.9512 24.4 77.4112 24.06C77.8712 23.7 78.3012 23.2 78.7012 22.56L79.2412 22.74C79.0012 23.5 78.6212 24.24 78.1012 24.96C77.5812 25.68 76.9212 26.27 76.1212 26.73C75.3212 27.19 74.3612 27.42 73.2412 27.42C71.8812 27.42 70.6812 27.13 69.6412 26.55C68.6012 25.97 67.7812 25.09 67.1812 23.91C66.6012 22.73 66.3112 21.23 66.3112 19.41C66.3112 17.55 66.6212 16 67.2412 14.76C67.8812 13.52 68.7512 12.6 69.8512 12C70.9712 11.38 72.2412 11.07 73.6612 11.07ZM97.7903 5.76V6.36C97.1103 6.38 96.5903 6.46 96.2303 6.6C95.8903 6.72 95.6603 6.96 95.5403 7.32C95.4203 7.66 95.3603 8.2 95.3603 8.94V24.18C95.3603 24.8 95.4003 25.26 95.4803 25.56C95.5803 25.86 95.7603 26.06 96.0203 26.16C96.3003 26.26 96.7103 26.31 97.2503 26.31H98.7203C99.4003 26.31 100.04 26.15 100.64 25.83C101.24 25.51 101.78 25.06 102.26 24.48C102.74 23.88 103.14 23.17 103.46 22.35C103.78 21.53 104.02 20.62 104.18 19.62H104.87C104.81 20.3 104.78 21.18 104.78 22.26C104.78 22.72 104.79 23.39 104.81 24.27C104.83 25.15 104.89 26.06 104.99 27C103.97 26.96 102.82 26.94 101.54 26.94C100.26 26.92 99.1203 26.91 98.1203 26.91C97.6203 26.91 96.9803 26.91 96.2003 26.91C95.4203 26.91 94.5803 26.92 93.6803 26.94C92.7803 26.94 91.8703 26.95 90.9503 26.97C90.0303 26.97 89.1603 26.98 88.3403 27V26.4C88.9803 26.36 89.4603 26.28 89.7803 26.16C90.1003 26.04 90.3103 25.8 90.4103 25.44C90.5303 25.08 90.5903 24.54 90.5903 23.82V8.94C90.5903 8.2 90.5303 7.66 90.4103 7.32C90.3103 6.96 90.0903 6.72 89.7503 6.6C89.4303 6.46 88.9603 6.38 88.3403 6.36V5.76C88.8403 5.78 89.5103 5.8 90.3503 5.82C91.2103 5.84 92.1203 5.85 93.0803 5.85C93.9603 5.85 94.8203 5.84 95.6603 5.82C96.5203 5.8 97.2303 5.78 97.7903 5.76ZM110.28 3.75C111.12 3.75 111.78 3.96 112.26 4.38C112.76 4.78 113.01 5.34 113.01 6.06C113.01 6.78 112.76 7.35 112.26 7.77C111.78 8.17 111.12 8.37 110.28 8.37C109.44 8.37 108.77 8.17 108.27 7.77C107.79 7.35 107.55 6.78 107.55 6.06C107.55 5.34 107.79 4.78 108.27 4.38C108.77 3.96 109.44 3.75 110.28 3.75ZM112.62 11.16V24.21C112.62 25.05 112.76 25.62 113.04 25.92C113.34 26.22 113.84 26.37 114.54 26.37V27C114.18 26.98 113.62 26.96 112.86 26.94C112.1 26.9 111.33 26.88 110.55 26.88C109.77 26.88 108.98 26.9 108.18 26.94C107.38 26.96 106.78 26.98 106.38 27V26.37C107.08 26.37 107.57 26.22 107.85 25.92C108.15 25.62 108.3 25.05 108.3 24.21V14.76C108.3 13.86 108.16 13.2 107.88 12.78C107.62 12.34 107.12 12.12 106.38 12.12V11.49C107.02 11.55 107.64 11.58 108.24 11.58C109.08 11.58 109.86 11.55 110.58 11.49C111.32 11.41 112 11.3 112.62 11.16ZM123.763 3.54C124.463 3.54 125.073 3.63 125.593 3.81C126.113 3.99 126.573 4.23 126.973 4.53C127.253 4.75 127.493 5.06 127.693 5.46C127.893 5.84 127.993 6.28 127.993 6.78C127.993 7.32 127.793 7.8 127.393 8.22C127.013 8.64 126.503 8.85 125.863 8.85C125.203 8.85 124.653 8.66 124.213 8.28C123.793 7.9 123.583 7.38 123.583 6.72C123.583 6.2 123.733 5.74 124.033 5.34C124.333 4.94 124.773 4.66 125.353 4.5C125.293 4.38 125.173 4.28 124.993 4.2C124.813 4.12 124.573 4.08 124.273 4.08C123.873 4.08 123.543 4.15 123.283 4.29C123.023 4.43 122.813 4.62 122.653 4.86C122.433 5.16 122.283 5.6 122.203 6.18C122.123 6.74 122.083 7.61 122.083 8.79V11.52H125.293V12.12H122.083V23.91C122.083 24.89 122.333 25.55 122.833 25.89C123.333 26.21 124.023 26.37 124.903 26.37V27C124.383 26.98 123.653 26.96 122.713 26.94C121.773 26.9 120.783 26.88 119.743 26.88C118.983 26.88 118.233 26.9 117.493 26.94C116.773 26.96 116.223 26.98 115.843 27V26.37C116.543 26.37 117.033 26.22 117.313 25.92C117.613 25.62 117.763 25.05 117.763 24.21V12.12H115.723V11.52H117.763C117.763 10.34 117.823 9.36 117.943 8.58C118.063 7.78 118.263 7.1 118.543 6.54C118.823 5.98 119.193 5.48 119.653 5.04C120.093 4.62 120.673 4.27 121.393 3.99C122.133 3.69 122.923 3.54 123.763 3.54ZM133.603 11.07C135.363 11.07 136.743 11.59 137.743 12.63C138.743 13.67 139.243 15.37 139.243 17.73H129.373L129.313 17.16H135.463C135.483 16.18 135.423 15.28 135.283 14.46C135.143 13.62 134.923 12.95 134.623 12.45C134.323 11.95 133.923 11.7 133.423 11.7C132.723 11.7 132.123 12.14 131.623 13.02C131.143 13.9 130.853 15.36 130.753 17.4L130.843 17.58C130.823 17.82 130.803 18.07 130.783 18.33C130.783 18.59 130.783 18.86 130.783 19.14C130.783 20.52 130.973 21.64 131.353 22.5C131.753 23.36 132.253 23.99 132.853 24.39C133.453 24.77 134.063 24.96 134.683 24.96C135.103 24.96 135.533 24.9 135.973 24.78C136.433 24.64 136.893 24.4 137.353 24.06C137.813 23.7 138.243 23.2 138.643 22.56L139.183 22.74C138.943 23.5 138.563 24.24 138.043 24.96C137.523 25.68 136.863 26.27 136.063 26.73C135.263 27.19 134.303 27.42 133.183 27.42C131.823 27.42 130.623 27.13 129.583 26.55C128.543 25.97 127.723 25.09 127.123 23.91C126.543 22.73 126.253 21.23 126.253 19.41C126.253 17.55 126.563 16 127.183 14.76C127.823 13.52 128.693 12.6 129.793 12C130.913 11.38 132.183 11.07 133.603 11.07Z" fill="white"/>
<path d="M27.5657 5.9681L27.566 5.96831C32.0086 9.70781 31.3307 15.7816 28.1903 18.9916L28.1897 18.9922L18.4454 28.9171C17.796 29.5793 16.9285 29.9446 15.9996 29.9446C15.0743 29.9446 14.202 29.5725 13.5539 28.9118C13.5538 28.9117 13.5538 28.9116 13.5537 28.9115L3.80945 18.9867L3.80916 18.9864C0.662189 15.7757 -0.00330889 9.70188 4.43301 5.96842L27.5657 5.9681ZM27.5657 5.9681C24.2584 3.18797 19.255 3.51081 15.9996 6.48932M27.5657 5.9681L15.9996 6.48932M25.205 8.77142C23.2757 7.14687 20.2372 7.35642 18.3007 9.32824L16.3566 11.3108L15.9996 11.6748L15.6426 11.3108L13.6984 9.32823C11.7728 7.36737 8.73398 7.14681 6.79357 8.77742L25.205 8.77142ZM25.205 8.77142C27.7859 10.9476 27.4174 14.5379 25.5761 16.4144C25.5761 16.4144 25.576 16.4144 25.576 16.4145L15.9996 26.1684M25.205 8.77142L15.9996 26.1684M15.9996 6.48932C12.7445 3.51085 7.741 3.18216 4.43319 5.96827L15.9996 6.48932ZM15.9996 26.1684L6.42308 16.4144C4.5656 14.5219 4.20736 10.9542 6.79347 8.7775L15.9996 26.1684ZM15.8281 26.3425C15.8281 26.3425 15.829 26.3416 15.8308 26.3402C15.829 26.3419 15.8281 26.3426 15.8281 26.3425ZM16.1711 26.3425C16.1711 26.3426 16.1702 26.3419 16.1684 26.3402C16.1701 26.3416 16.171 26.3425 16.1711 26.3425Z" fill="#219D80" stroke="#219D80"/>
<path fill-rule="evenodd" clip-rule="evenodd" d="M20.3727 15C20.3176 15.5221 20.29 16.0621 20.29 16.62C20.29 18.88 20.69 20.82 21.49 22.44C22.31 24.04 23.52 25.27 25.12 26.13C26.72 26.99 28.68 27.42 31 27.42C31.9 27.42 32.76 27.28 33.58 27C34.4 26.7 35.18 26.34 35.92 25.92C36.4 25.64 36.75 25.47 36.97 25.41C37.21 25.33 37.4 25.29 37.54 25.29C37.84 25.29 38.05 25.49 38.17 25.89C38.31 26.29 38.39 26.66 38.41 27H39.01V21.06C39.01 20.32 39.04 19.77 39.1 19.41C39.18 19.05 39.31 18.81 39.49 18.69C39.69 18.57 39.98 18.5 40.36 18.48V17.88C39.92 17.9 39.35 17.92 38.65 17.94C37.95 17.96 37.18 17.97 36.34 17.97H34.57C33.93 17.95 33.31 17.94 32.71 17.94C32.13 17.92 31.63 17.9 31.21 17.88V18.48C32.05 18.5 32.69 18.59 33.13 18.75C33.57 18.91 33.86 19.22 34 19.68C34.16 20.12 34.24 20.8 34.24 21.72V24.66C34.24 25.04 34.19 25.35 34.09 25.59C33.99 25.81 33.8 26.02 33.52 26.22C33.3 26.38 33.01 26.52 32.65 26.64C32.29 26.76 31.87 26.82 31.39 26.82C29.53 26.82 28.1 25.99 27.1 24.33C26.12 22.67 25.63 20.04 25.63 16.44C25.63 15.9532 25.6464 15.4732 25.679 15H20.3727ZM43.7006 15V24.21C43.7006 25.05 43.5506 25.62 43.2506 25.92C42.9706 26.22 42.4806 26.37 41.7806 26.37V27C42.1806 26.98 42.7806 26.96 43.5806 26.94C44.3806 26.9 45.1706 26.88 45.9506 26.88C46.7306 26.88 47.5006 26.9 48.2606 26.94C49.0206 26.96 49.5806 26.98 49.9406 27V26.37C49.2406 26.37 48.7406 26.22 48.4406 25.92C48.1606 25.62 48.0206 25.05 48.0206 24.21V15H43.7006ZM52.3595 15L57.2163 27.06C57.5363 27.04 57.8563 27.03 58.1763 27.03C58.5163 27.03 58.8463 27.04 59.1663 27.06L63.4296 15H62.6026C62.5445 15.5415 62.3891 16.1715 62.1363 16.89L59.9904 22.8389L57.0318 15H52.3595ZM65 11.5288V12.3874C65.1993 12.2448 65.4047 12.1457 65.6163 12.09V11.49C65.4484 11.503 65.243 11.5159 65 11.5288ZM77.8012 12.63C76.8012 11.59 75.4212 11.07 73.6612 11.07C72.2412 11.07 70.9712 11.38 69.8512 12C68.7512 12.6 67.8812 13.52 67.2412 14.76C66.6212 16 66.3112 17.55 66.3112 19.41C66.3112 21.23 66.6012 22.73 67.1812 23.91C67.7812 25.09 68.6012 25.97 69.6412 26.55C70.6812 27.13 71.8812 27.42 73.2412 27.42C74.3612 27.42 75.3212 27.19 76.1212 26.73C76.9212 26.27 77.5812 25.68 78.1012 24.96C78.6212 24.24 79.0012 23.5 79.2412 22.74L78.7012 22.56C78.3012 23.2 77.8712 23.7 77.4112 24.06C76.9512 24.4 76.4912 24.64 76.0312 24.78C75.5912 24.9 75.1612 24.96 74.7412 24.96C74.1212 24.96 73.5112 24.77 72.9112 24.39C72.3112 23.99 71.8112 23.36 71.4112 22.5C71.0312 21.64 70.8412 20.52 70.8412 19.14V18.33C70.8571 18.1237 70.8729 17.9237 70.8888 17.73H79.3012C79.3012 15.37 78.8012 13.67 77.8012 12.63ZM70.824 17.16H75.5212C75.5412 16.18 75.4812 15.28 75.3412 14.46C75.2012 13.62 74.9812 12.95 74.6812 12.45C74.3812 11.95 73.9812 11.7 73.4812 11.7C72.7812 11.7 72.1812 12.14 71.6812 13.02C71.2202 13.8651 70.9345 15.2451 70.824 17.16ZM96.2304 6.60004C96.5904 6.46004 97.1104 6.38004 97.7904 6.36004V5.76004C97.2304 5.78004 96.5204 5.80004 95.6604 5.82004C94.8204 5.84004 93.9604 5.85004 93.0804 5.85004C92.1204 5.85004 91.2104 5.84004 90.3503 5.82004C89.5104 5.80004 88.8404 5.78004 88.3404 5.76004V6.36004C88.9604 6.38004 89.4304 6.46004 89.7504 6.60004C90.0904 6.72004 90.3103 6.96004 90.4104 7.32004C90.5303 7.66004 90.5904 8.20004 90.5904 8.94004V23.82C90.5904 24.54 90.5303 25.08 90.4104 25.44C90.3103 25.8 90.1003 26.04 89.7803 26.16C89.4604 26.28 88.9804 26.36 88.3404 26.4V27C89.1604 26.98 90.0303 26.97 90.9503 26.97C91.8704 26.95 92.7803 26.94 93.6804 26.94C94.5804 26.92 95.4203 26.91 96.2003 26.91H98.1204C99.1204 26.91 100.26 26.92 101.54 26.94C102.82 26.94 103.97 26.96 104.99 27C104.89 26.06 104.83 25.15 104.81 24.27C104.79 23.39 104.78 22.72 104.78 22.26C104.78 21.18 104.81 20.3 104.87 19.62H104.18C104.02 20.62 103.78 21.53 103.46 22.35C103.14 23.17 102.74 23.88 102.26 24.48C101.78 25.06 101.24 25.51 100.64 25.83C100.04 26.15 99.4004 26.31 98.7204 26.31H97.2504C96.7104 26.31 96.3004 26.26 96.0204 26.16C95.7604 26.06 95.5804 25.86 95.4804 25.56C95.4004 25.26 95.3604 24.8 95.3604 24.18V8.94004C95.3604 8.20004 95.4203 7.66004 95.5404 7.32004C95.6604 6.96004 95.8904 6.72004 96.2304 6.60004ZM112.26 4.38004C111.78 3.96004 111.12 3.75004 110.28 3.75004C109.44 3.75004 108.77 3.96004 108.27 4.38004C107.79 4.78004 107.55 5.34004 107.55 6.06004C107.55 6.78004 107.79 7.35004 108.27 7.77004C108.77 8.17004 109.44 8.37004 110.28 8.37004C111.12 8.37004 111.78 8.17004 112.26 7.77004C112.76 7.35004 113.01 6.78004 113.01 6.06004C113.01 5.34004 112.76 4.78004 112.26 4.38004ZM112.62 24.21V11.16C112 11.3 111.32 11.41 110.58 11.49C109.86 11.55 109.08 11.58 108.24 11.58C107.64 11.58 107.02 11.55 106.38 11.49V12.12C107.12 12.12 107.62 12.34 107.88 12.78C108.16 13.2 108.3 13.86 108.3 14.76V24.21C108.3 25.05 108.15 25.62 107.85 25.92C107.57 26.22 107.08 26.37 106.38 26.37V27C106.78 26.98 107.38 26.96 108.18 26.94C108.98 26.9 109.77 26.88 110.55 26.88C111.33 26.88 112.1 26.9 112.86 26.94C113.62 26.96 114.18 26.98 114.54 27V26.37C113.84 26.37 113.34 26.22 113.04 25.92C112.76 25.62 112.62 25.05 112.62 24.21ZM125.593 3.81004C125.073 3.63004 124.463 3.54004 123.763 3.54004C122.923 3.54004 122.133 3.69004 121.393 3.99004C120.673 4.27004 120.093 4.62004 119.653 5.04004C119.193 5.48004 118.823 5.98004 118.543 6.54004C118.263 7.10004 118.063 7.78004 117.943 8.58004C117.823 9.36004 117.763 10.34 117.763 11.52H115.723V12.12H117.763V24.21C117.763 25.05 117.613 25.62 117.313 25.92C117.033 26.22 116.543 26.37 115.843 26.37V27C116.223 26.98 116.773 26.96 117.493 26.94C118.233 26.9 118.983 26.88 119.743 26.88C120.783 26.88 121.773 26.9 122.713 26.94C123.653 26.96 124.383 26.98 124.903 27V26.37C124.023 26.37 123.333 26.21 122.833 25.89C122.333 25.55 122.083 24.89 122.083 23.91V12.12H125.293V11.52H122.083V8.79004C122.083 7.61004 122.123 6.74004 122.203 6.18004C122.283 5.60004 122.433 5.16004 122.653 4.86004C122.813 4.62004 123.023 4.43004 123.283 4.29004C123.543 4.15004 123.873 4.08004 124.273 4.08004C124.573 4.08004 124.813 4.12004 124.993 4.20004C125.173 4.28004 125.293 4.38004 125.353 4.50004C124.773 4.66004 124.333 4.94004 124.033 5.34004C123.733 5.74004 123.583 6.20004 123.583 6.72004C123.583 7.38004 123.793 7.90004 124.213 8.28004C124.653 8.66004 125.203 8.85004 125.863 8.85004C126.503 8.85004 127.013 8.64004 127.393 8.22004C127.793 7.80004 127.993 7.32004 127.993 6.78004C127.993 6.28004 127.893 5.84004 127.693 5.46004C127.493 5.06004 127.253 4.75004 126.973 4.53004C126.573 4.23004 126.113 3.99004 125.593 3.81004ZM137.743 12.63C136.743 11.59 135.363 11.07 133.603 11.07C132.183 11.07 130.913 11.38 129.793 12C128.693 12.6 127.823 13.52 127.183 14.76C126.563 16 126.253 17.55 126.253 19.41C126.253 21.23 126.543 22.73 127.123 23.91C127.723 25.09 128.543 25.97 129.583 26.55C130.623 27.13 131.823 27.42 133.183 27.42C134.303 27.42 135.263 27.19 136.063 26.73C136.863 26.27 137.523 25.68 138.043 24.96C138.563 24.24 138.943 23.5 139.183 22.74L138.643 22.56C138.243 23.2 137.813 23.7 137.353 24.06C136.893 24.4 136.433 24.64 135.973 24.78C135.533 24.9 135.103 24.96 134.683 24.96C134.063 24.96 133.453 24.77 132.853 24.39C132.253 23.99 131.753 23.36 131.353 22.5C130.973 21.64 130.783 20.52 130.783 19.14V18.33C130.798 18.1237 130.814 17.9237 130.83 17.73H139.243C139.243 15.37 138.743 13.67 137.743 12.63ZM130.765 17.16H135.463C135.483 16.18 135.423 15.28 135.283 14.46C135.143 13.62 134.923 12.95 134.623 12.45C134.323 11.95 133.923 11.7 133.423 11.7C132.723 11.7 132.123 12.14 131.623 13.02C131.162 13.8651 130.876 15.2451 130.765 17.16Z" fill="white"/>
</svg>
