<svg width="66" height="53" viewBox="0 0 66 53" fill="none" xmlns="http://www.w3.org/2000/svg">
<path d="M50.3254 19.8H34.6504V25.575C34.6504 29.669 31.3194 33 27.2254 33C23.1313 33 19.8004 29.669 19.8004 25.575V13.035L13.1076 17.0568C11.1173 18.2428 9.90039 20.3981 9.90039 22.7081V27.5859L1.6504 32.3503C0.0725864 33.2578 -0.473976 35.279 0.443836 36.8568L8.69383 51.15C9.60133 52.7278 11.6226 53.264 13.2004 52.3565L23.8635 46.2H37.9504C41.5907 46.2 44.5504 43.2403 44.5504 39.6H46.2004C48.0257 39.6 49.5004 38.1253 49.5004 36.3V29.7H50.3254C51.6969 29.7 52.8004 28.5965 52.8004 27.225V22.275C52.8004 20.9034 51.6969 19.8 50.3254 19.8ZM65.5569 15.9431L57.3069 1.64997C56.3994 0.0721539 54.3782 -0.464096 52.8004 0.443404L42.1372 6.59997H31.5979C30.3604 6.59997 29.1538 6.95059 28.1019 7.60028L24.6473 9.75559C23.6779 10.3537 23.1004 11.4159 23.1004 12.5503V25.575C23.1004 27.854 24.9463 29.7 27.2254 29.7C29.5044 29.7 31.3504 27.854 31.3504 25.575V16.5H50.3254C53.5119 16.5 56.1004 19.0884 56.1004 22.275V25.214L64.3504 20.4496C65.9282 19.5318 66.4644 17.5209 65.5569 15.9431Z" fill="#219D80"/>
</svg>
