<svg width="20" height="20" viewBox="0 0 20 20" fill="none" xmlns="http://www.w3.org/2000/svg">
<path d="M14.9417 1.47508C13.4333 0.594666 11.7857 0.154541 9.99947 0.154541C8.213 0.154541 6.56552 0.594666 5.05705 1.47508C3.54858 2.35554 2.35411 3.55 1.47386 5.05827C0.593445 6.56691 0.15332 8.21439 0.15332 10.0007C0.15332 11.9921 0.695825 13.7998 1.78145 15.4236C2.86687 17.0478 4.28982 18.2485 6.0507 19.0261C6.01635 18.1115 6.07195 17.3553 6.21737 16.757L7.48654 11.398C7.27284 10.9793 7.16607 10.4581 7.16607 9.83398C7.16607 9.10752 7.34982 8.50052 7.71731 8.01357C8.08461 7.52622 8.53347 7.28252 9.06346 7.28252C9.49066 7.28252 9.81987 7.4234 10.0507 7.70578C10.2815 7.98773 10.397 8.34254 10.397 8.76978C10.397 9.0349 10.3476 9.35764 10.2496 9.73782C10.1512 10.1182 10.023 10.5583 9.86503 11.0584C9.70688 11.5582 9.59369 11.9578 9.52521 12.257C9.40535 12.7783 9.50379 13.2248 9.82008 13.5967C10.1361 13.9685 10.5551 14.1543 11.0765 14.1543C11.9911 14.1543 12.7411 13.646 13.3267 12.6288C13.9121 11.6117 14.2048 10.3767 14.2048 8.9235C14.2048 7.80398 13.8438 6.89354 13.1215 6.19272C12.3992 5.49207 11.3926 5.14144 10.1023 5.14144C8.65768 5.14144 7.48882 5.6053 6.59589 6.53233C5.70275 7.45981 5.25617 8.56893 5.25617 9.85911C5.25617 10.6284 5.47426 11.2739 5.90999 11.7952C6.05525 11.9662 6.10228 12.1498 6.05107 12.3462C6.0338 12.3976 5.99969 12.5258 5.94849 12.7308C5.89731 12.9358 5.86297 13.0685 5.8459 13.1282C5.77742 13.4019 5.61513 13.4874 5.35855 13.3846C4.70037 13.1111 4.2003 12.6369 3.85861 11.9616C3.51672 11.2866 3.34585 10.5046 3.34585 9.61562C3.34585 9.04295 3.43763 8.47025 3.62137 7.89759C3.80512 7.32492 4.09125 6.77161 4.48041 6.23719C4.86912 5.70343 5.33505 5.23087 5.87796 4.8207C6.42067 4.41032 7.08096 4.08156 7.8588 3.83327C8.63646 3.58563 9.47424 3.46163 10.3717 3.46163C11.5853 3.46163 12.6751 3.73089 13.6409 4.26922C14.6066 4.80778 15.3439 5.50448 15.8525 6.35909C16.3608 7.21374 16.6153 8.12809 16.6153 9.1028C16.6153 10.3849 16.3929 11.5387 15.9487 12.5645C15.5042 13.5902 14.8759 14.3956 14.0639 14.9811C13.2517 15.5664 12.3286 15.8592 11.2946 15.8592C10.7732 15.8592 10.286 15.7375 9.833 15.4937C9.37975 15.2501 9.06785 14.9617 8.89699 14.6283C8.51242 16.1409 8.28165 17.0431 8.20467 17.3333C8.04214 17.9403 7.70878 18.641 7.20456 19.4359C8.11912 19.7094 9.05074 19.846 9.99947 19.846C11.7857 19.846 13.4333 19.4059 14.9417 18.5257C16.4501 17.6452 17.6446 16.4508 18.5251 14.9421C19.4053 13.4336 19.8457 11.7864 19.8457 9.99984C19.8457 8.21337 19.4053 6.56613 18.5251 5.05745C17.6448 3.55 16.4501 2.35554 14.9417 1.47508Z" fill="#252A34"/>
</svg>
