<svg width="66" height="66" viewBox="0 0 66 66" fill="none" xmlns="http://www.w3.org/2000/svg">
<g clip-path="url(#clip0_4_229)">
<path d="M37.1252 21.5531V17.9308C33.49 13.2515 31.0537 7.70854 30.1513 1.79174C29.8806 0.0515078 27.7021 -0.631695 26.5677 0.721821C23.8478 3.93159 21.708 7.69565 20.2642 11.8722C24.6728 16.8093 30.5767 20.1996 37.1252 21.5531ZM51.5627 8.24995C45.865 8.24995 41.2502 12.8777 41.2502 18.5753V26.2324C27.7924 25.4332 16.3713 17.1445 11.215 5.38823C10.506 3.7769 8.22438 3.68667 7.47673 5.27221C5.33688 9.79682 4.12516 14.8499 4.12516 20.1867C4.12516 29.3132 8.52087 37.8339 15.0951 44.1503C16.7966 45.7875 18.4595 47.141 20.1095 48.3785L1.55993 53.0191C0.180633 53.3671 -0.438117 54.9656 0.33532 56.1644C2.57829 59.632 8.12126 65.5101 20.0838 66C21.115 66.0386 22.1463 65.6648 22.9326 64.9816L31.3373 57.75H41.2502C52.6455 57.75 61.8752 48.5332 61.8752 37.1378V16.4999L66.0002 8.24995H51.5627ZM51.5627 20.6378C50.4283 20.6378 49.5002 19.7097 49.5002 18.5753C49.5002 17.441 50.4283 16.5128 51.5627 16.5128C52.697 16.5128 53.6252 17.441 53.6252 18.5753C53.6252 19.7097 52.697 20.6378 51.5627 20.6378Z" fill="#219D80"/>
</g>
<defs>
<clipPath id="clip0_4_229">
<rect width="66" height="66" fill="white"/>
</clipPath>
</defs>
</svg>
