<svg width="20" height="16" viewBox="0 0 20 16" fill="none" xmlns="http://www.w3.org/2000/svg">
<path d="M19.8456 1.89415C19.1133 2.21538 18.333 2.42831 17.5195 2.53169C18.3564 2.032 18.9952 1.24677 19.2955 0.300308C18.5152 0.765538 17.6536 1.09415 16.7355 1.27754C15.9945 0.488615 14.9385 0 13.7865 0C11.5515 0 9.75209 1.81415 9.75209 4.03815C9.75209 4.35815 9.77917 4.66585 9.84563 4.95877C6.48932 4.79508 3.51947 3.18646 1.5244 0.736C1.17609 1.34031 0.971782 2.032 0.971782 2.77661C0.971782 4.17477 1.69178 5.41415 2.76501 6.13169C2.1164 6.11938 1.48009 5.93108 0.941013 5.63446C0.941013 5.64677 0.941013 5.66277 0.941013 5.67877C0.941013 7.64061 2.3404 9.27015 4.17547 9.64554C3.84686 9.73538 3.4887 9.77846 3.11701 9.77846C2.85855 9.77846 2.59763 9.76369 2.3527 9.70954C2.87578 11.3083 4.36009 12.4837 6.12501 12.5218C4.75147 13.5963 3.00747 14.2437 1.11947 14.2437C0.788397 14.2437 0.470859 14.2289 0.15332 14.1883C1.94163 15.3415 4.06101 16 6.34655 16C13.7755 16 17.837 9.84615 17.837 4.512C17.837 4.33354 17.8309 4.16123 17.8222 3.99015C18.6235 3.42154 19.2967 2.71138 19.8456 1.89415Z" fill="#252A34"/>
</svg>
