<svg width="66" height="53" viewBox="0 0 66 53" fill="none" xmlns="http://www.w3.org/2000/svg">
<g clip-path="url(#clip0_4_217)">
<path d="M13.1996 9.9C15.9324 9.9 18.1496 7.68281 18.1496 4.95C18.1496 2.21719 15.9324 0 13.1996 0C10.4668 0 8.24959 2.21719 8.24959 4.95C8.24959 7.68281 10.4668 9.9 13.1996 9.9ZM52.7996 9.9C55.5324 9.9 57.7496 7.68281 57.7496 4.95C57.7496 2.21719 55.5324 0 52.7996 0C50.0668 0 47.8496 2.21719 47.8496 4.95C47.8496 7.68281 50.0668 9.9 52.7996 9.9ZM65.7624 48.2728L61.2249 36.9291L56.9865 41.7141L56.7802 43.5909L59.6368 50.7272C60.1524 52.0162 61.3899 52.8 62.6996 52.8C63.1121 52.8 63.5246 52.7278 63.9268 52.5628C65.6181 51.8822 66.4431 49.9641 65.7624 48.2728ZM62.2356 26.6372L60.3277 18.3666C59.8534 16.3041 58.4096 14.5716 56.4605 13.7362C54.5527 12.9112 52.4387 13.0453 50.6752 14.0766C48.3343 15.4584 46.5812 17.6344 45.7149 20.2022L44.5496 23.6981L42.8996 24.75V14.85C42.8996 13.9425 42.1571 13.2 41.2496 13.2H24.7496C23.8421 13.2 23.0996 13.9425 23.0996 14.85V24.75L21.4393 23.6981L20.274 20.2022C19.418 17.6241 17.6546 15.4584 15.3137 14.0766C13.5399 13.0453 11.4362 12.9112 9.52835 13.7362C7.57928 14.5716 6.13553 16.3041 5.66116 18.3666L3.76366 26.6372C3.28928 28.6997 3.83584 30.8859 5.24866 32.4844L12.1787 40.3116L13.2202 49.8609C13.4058 51.5419 14.829 52.8 16.4996 52.8C16.6233 52.8 16.7368 52.7897 16.8605 52.7794C18.6755 52.5834 19.9749 50.9541 19.779 49.1391L18.7374 39.5691C18.5827 38.2284 18.0259 36.9806 17.1287 35.9597L12.6633 30.9066L14.4783 23.6569L15.1796 25.7606C15.6024 27.0497 16.4068 28.1737 17.7062 29.1225L22.9759 32.4741C23.4502 32.7731 24.2237 32.9484 24.7496 32.9897H41.2496C41.7755 32.9484 42.549 32.7731 43.0234 32.4741L48.293 29.1225C49.5924 28.1737 50.3968 27.06 50.8196 25.7606L51.5209 23.6569L53.3359 30.9066L48.8705 35.9597C47.9734 36.9806 47.4165 38.2284 47.2618 39.5691L46.2202 49.1391C46.0243 50.9541 47.334 52.5834 49.1387 52.7794C49.2624 52.7897 49.3759 52.8 49.4996 52.8C51.1599 52.8 52.5934 51.5522 52.779 49.8609L53.8206 40.3116L60.7505 32.4844C62.153 30.8859 62.7099 28.6997 62.2356 26.6372ZM4.77428 36.9291L0.236779 48.2728C-0.443846 49.9641 0.381154 51.8822 2.0724 52.5628C3.80491 53.2434 5.69209 52.3875 6.36241 50.7272L9.21897 43.5909L9.01272 41.7141L4.77428 36.9291Z" fill="#219D80"/>
</g>
<defs>
<clipPath id="clip0_4_217">
<rect width="66" height="52.8" fill="white"/>
</clipPath>
</defs>
</svg>
