<svg width="20" height="14" viewBox="0 0 20 14" fill="none" xmlns="http://www.w3.org/2000/svg">
<path d="M18.8409 2.38564C18.6282 1.59474 18.0046 0.971284 17.2138 0.758319C15.7691 0.363037 9.99031 0.363037 9.99031 0.363037C9.99031 0.363037 4.21173 0.363037 2.76705 0.743332C1.99147 0.956072 1.35269 1.59486 1.13995 2.38564C0.759766 3.8302 0.759766 6.82603 0.759766 6.82603C0.759766 6.82603 0.759766 9.83695 1.13995 11.2664C1.35291 12.0572 1.97626 12.6807 2.76716 12.8936C4.22694 13.289 9.99053 13.289 9.99053 13.289C9.99053 13.289 15.7691 13.289 17.2138 12.9087C18.0047 12.6959 18.6282 12.0724 18.8411 11.2816C19.2212 9.83695 19.2212 6.84124 19.2212 6.84124C19.2212 6.84124 19.2364 3.8302 18.8409 2.38564ZM8.15046 9.59368V4.05838L12.9558 6.82603L8.15046 9.59368Z" fill="#252A34"/>
</svg>
